#N canvas 838 112 779 300 10;
#X obj 300 130 counter;
#X obj 300 21 bng 15 250 50 0 empty empty empty 17 7 0 10 -262144 -1
-1;
#X obj 278 260 print;
#X obj 279 201 pack s f s f s f;
#X msg 6 255 symbol H:;
#X msg 6 184 symbol M:;
#X msg 3 96 symbol S:;
#X msg 489 242 symbol \$1;
#X floatatom 380 40 5 0 0 0 - - -, f 5;
#X obj 300 79 metro 1;
#X connect 0 0 3 1;
#X connect 0 1 3 3;
#X connect 0 2 3 5;
#X connect 0 2 7 0;
#X connect 1 0 9 0;
#X connect 3 0 2 0;
#X connect 4 0 3 0;
#X connect 5 0 3 2;
#X connect 6 0 3 4;
#X connect 8 0 9 1;
#X connect 9 0 0 0;
#X connect 9 0 4 0;
#X connect 9 0 5 0;
#X connect 9 0 6 0;
